<svg xmlns="http://www.w3.org/2000/svg" id="a" viewBox="0 0 631.06 230.12"><defs><style>.b{fill:#fff;}</style></defs><g><path class="b" d="M272.26,132.76c-.78,.61-1.67,1.15-2.65,1.63-1.24,.6-2.58,1.07-4.04,1.41-1.46,.34-3.01,.5-4.67,.5-1.53,0-2.96-.2-4.29-.6-1.33-.4-2.53-.96-3.61-1.69-1.07-.73-2.03-1.61-2.88-2.65-.85-1.04-1.55-2.19-2.12-3.47-.64-1.33-1.12-2.79-1.45-4.4-.33-1.6-.5-3.29-.52-5.05v-5.08c.02-1.71,.18-3.35,.48-4.92s.74-3.01,1.32-4.34c.57-1.26,1.24-2.4,2.02-3.44,.78-1.04,1.68-1.94,2.68-2.7,1.09-.8,2.3-1.42,3.62-1.86,1.32-.44,2.75-.66,4.3-.66,2.09,0,3.95,.28,5.57,.85,1.62,.57,3,1.37,4.15,2.43,1.17,1.07,2.09,2.37,2.76,3.89,.67,1.52,1.1,3.23,1.28,5.12h-6.45c-.16-1.04-.41-1.98-.74-2.83-.33-.84-.76-1.56-1.31-2.14-.58-.62-1.3-1.09-2.14-1.42-.85-.33-1.84-.49-2.99-.49-.84,0-1.61,.14-2.32,.42-.71,.28-1.35,.67-1.91,1.16-.66,.57-1.22,1.26-1.71,2.09-.48,.83-.88,1.75-1.19,2.77-.27,.89-.47,1.85-.6,2.87-.13,1.02-.19,2.07-.19,3.14v5.13c0,1.26,.09,2.45,.26,3.58,.17,1.13,.43,2.18,.78,3.14,.27,.73,.6,1.41,.97,2.05,.37,.64,.82,1.2,1.32,1.69,.64,.64,1.38,1.13,2.23,1.47,.85,.35,1.81,.53,2.88,.55,.64,0,1.28-.04,1.94-.12,.66-.08,1.28-.21,1.88-.39,.58-.18,1.12-.41,1.61-.7,.49-.28,.88-.61,1.17-1l.03-7.95h-7.21v-5.11h13.66l.05,15.21c-.55,.66-1.21,1.29-1.99,1.9Z"></path><path class="b" d="M286.42,117.91v12.43h19.2v5.41h-25.78v-39.77h25.65v5.44h-19.06v11.2h16.44v5.3h-16.44Z"></path><path class="b" d="M330.47,135.75l-12.92-27.37-.03,27.37h-6.64v-39.77h6.66l12.84,27.26,.05-27.26h6.61v39.77h-6.58Z"></path><path class="b" d="M350.2,117.91v12.43h19.2v5.41h-25.78v-39.77h25.65v5.44h-19.06v11.2h16.44v5.3h-16.44Z"></path><path class="b" d="M381.79,120.32v15.43h-6.56v-39.77h12.62c2.06,.02,3.95,.28,5.68,.79,1.73,.51,3.22,1.26,4.48,2.24,1.24,1,2.2,2.24,2.9,3.73,.69,1.48,1.04,3.22,1.04,5.2,0,1.37-.18,2.6-.53,3.71-.36,1.11-.85,2.11-1.49,3-.64,.89-1.4,1.67-2.29,2.35-.89,.67-1.88,1.26-2.98,1.75l8.49,16.63v.36h-7.02l-7.62-15.43h-6.72Zm6.15-5.35c1.17-.02,2.22-.2,3.16-.53,.94-.34,1.73-.83,2.39-1.46,.58-.55,1.04-1.22,1.37-2.02,.33-.8,.49-1.71,.49-2.73,0-1.15-.18-2.15-.53-3.02-.36-.87-.88-1.59-1.57-2.17-.64-.55-1.41-.96-2.32-1.24-.91-.28-1.93-.43-3.06-.45h-6.06v13.63h6.15Z"></path><path class="b" d="M413.87,126.6l-2.7,9.15h-6.83l12.95-39.77h5.82l12.73,39.77h-6.8l-2.68-9.15h-12.48Zm10.87-5.63l-4.56-15.73-4.64,15.73h9.2Z"></path><path class="b" d="M464.41,128.77c-.73,1.58-1.68,2.92-2.87,4.03-1.2,1.13-2.63,2-4.28,2.61-1.65,.61-3.47,.91-5.48,.91-1.64,0-3.15-.22-4.52-.67-1.37-.45-2.6-1.08-3.67-1.9-1.04-.76-1.94-1.69-2.72-2.77-.77-1.08-1.42-2.27-1.95-3.57-.53-1.28-.92-2.66-1.19-4.15-.26-1.49-.39-3.05-.39-4.67v-5.44c0-1.55,.13-3.04,.38-4.48,.25-1.44,.64-2.79,1.15-4.07,.55-1.42,1.25-2.71,2.12-3.87,.87-1.16,1.86-2.14,2.99-2.96,1.07-.75,2.26-1.33,3.56-1.75,1.3-.42,2.73-.63,4.28-.63,2.09,0,3.96,.31,5.61,.93,1.65,.62,3.05,1.49,4.22,2.62,1.18,1.15,2.12,2.53,2.8,4.15,.68,1.62,1.12,3.42,1.33,5.41h-6.56c-.11-1.18-.33-2.25-.67-3.21-.34-.96-.8-1.77-1.38-2.45-.6-.67-1.34-1.19-2.21-1.54-.87-.36-1.92-.53-3.14-.53-.86,0-1.63,.12-2.31,.36-.68,.24-1.29,.57-1.82,1.01-.73,.53-1.33,1.21-1.82,2.06-.48,.84-.88,1.79-1.19,2.83-.24,.91-.41,1.88-.53,2.91-.12,1.03-.18,2.08-.18,3.15v5.49c0,1.33,.08,2.58,.23,3.74,.16,1.17,.4,2.23,.72,3.2,.25,.8,.58,1.53,.97,2.19,.39,.66,.86,1.22,1.41,1.69,.56,.51,1.21,.9,1.95,1.16,.74,.26,1.58,.4,2.53,.4,1.13,0,2.13-.16,3-.49,.87-.33,1.62-.81,2.24-1.45,.6-.62,1.08-1.39,1.45-2.32,.36-.93,.6-1.99,.71-3.2h6.58c-.18,1.93-.64,3.68-1.37,5.26Z"></path><path class="b" d="M495.24,95.98v5.44h-8.49v28.92h8.49v5.41h-23.43v-5.41h8.3v-28.92h-8.3v-5.44h23.43Z"></path><path class="b" d="M529.24,123.16c-.28,1.49-.69,2.9-1.22,4.23-.56,1.33-1.26,2.55-2.1,3.67-.84,1.12-1.8,2.08-2.9,2.88-1.05,.73-2.22,1.3-3.51,1.72-1.28,.42-2.69,.63-4.22,.63s-3.04-.22-4.36-.67c-1.32-.45-2.5-1.06-3.54-1.84-1.05-.8-1.98-1.77-2.77-2.9-.79-1.13-1.45-2.37-1.98-3.71-.51-1.29-.89-2.67-1.15-4.14-.25-1.46-.38-2.97-.38-4.52v-5.24c0-1.62,.14-3.19,.41-4.7,.27-1.51,.68-2.94,1.23-4.29,.53-1.29,1.18-2.48,1.95-3.56,.77-1.08,1.69-2.03,2.74-2.83,1.02-.78,2.18-1.39,3.48-1.82,1.3-.43,2.74-.64,4.3-.64s3.04,.22,4.37,.66c1.33,.44,2.52,1.05,3.58,1.83,1.06,.78,1.98,1.7,2.76,2.76,.78,1.06,1.44,2.21,1.97,3.47,.58,1.35,1.02,2.79,1.31,4.33,.29,1.54,.44,3.13,.44,4.79v5.24c0,1.6-.14,3.15-.42,4.64Zm-6.36-12.89c-.1-.96-.27-1.88-.51-2.76-.27-1-.63-1.92-1.08-2.74-.45-.83-.99-1.54-1.63-2.12-.56-.51-1.21-.91-1.94-1.2-.73-.29-1.56-.44-2.49-.44s-1.69,.14-2.4,.42c-.71,.28-1.33,.67-1.86,1.16-.64,.6-1.17,1.32-1.61,2.14-.44,.83-.77,1.75-1.01,2.77-.22,.87-.38,1.8-.48,2.77-.1,.97-.15,1.95-.15,2.94v5.3c0,.96,.05,1.92,.14,2.87,.09,.95,.25,1.86,.46,2.73,.24,.98,.56,1.9,.97,2.74,.41,.85,.91,1.56,1.49,2.15,.57,.55,1.22,.98,1.95,1.3,.74,.32,1.59,.48,2.55,.48s1.77-.16,2.53-.46c.75-.31,1.41-.73,1.95-1.26,.64-.6,1.17-1.32,1.6-2.15,.43-.83,.77-1.74,1.02-2.74,.22-.87,.38-1.79,.48-2.74,.1-.96,.16-1.93,.18-2.91v-5.3c-.02-1-.08-1.99-.18-2.95Zm2.42-24.88l-7.46,7.46h-5.03l5.05-7.46h7.43Z"></path><path class="b" d="M553.69,135.75l-12.92-27.37-.03,27.37h-6.64v-39.77h6.66l12.84,27.26,.05-27.26h6.61v39.77h-6.58Z"></path><path class="b" d="M600.9,101.42v34.33h-6.53v-34.33h-12.18v-5.44h30.97v5.44h-12.26Z"></path></g><circle class="b" cx="191.92" cy="163.66" r="10.37"></circle><rect class="b" x="106.5" y="77.54" width="6.45" height="129.44"></rect><circle class="b" cx="109.72" cy="161.51" r="10.37"></circle><polygon class="b" points="110.3 214.91 24.76 165.52 24.76 66.75 110.3 17.36 194.23 65.82 191 71.4 110.3 24.81 31.21 70.47 31.21 161.8 110.3 207.46 189.39 161.8 189.39 120.57 195.84 120.57 195.84 165.52 110.3 214.91"></polygon><g><rect class="b" x="106.5" y="25.52" width="6.45" height="45.46"></rect><polygon class="b" points="32.85 164.62 29.62 159.03 67.51 137.17 75.98 141.49 73.05 147.24 67.7 144.51 32.85 164.62"></polygon><rect class="b" x="152.12" y="113.3" width="40.41" height="6.45"></rect><polygon class="b" points="68.49 96.13 25.12 71.52 28.31 65.91 68.52 88.72 73.29 86.07 76.43 91.71 68.49 96.13"></polygon></g><circle class="b" cx="67.94" cy="91.33" r="10.37"></circle><circle class="b" cx="67.94" cy="139.99" r="10.37"></circle><circle class="b" cx="191.92" cy="116.53" r="10.37"></circle><circle class="b" cx="109.72" cy="206.88" r="10.37"></circle><rect class="b" x="27.99" y="66.03" width="164.63" height="6.45"></rect><circle class="b" cx="28.26" cy="69.18" r="10.37"></circle><circle class="b" cx="191.92" cy="69.18" r="10.37"></circle><circle class="b" cx="109.72" cy="69.18" r="10.37"></circle><circle class="b" cx="149.18" cy="116.53" r="10.37"></circle><circle class="b" cx="28.26" cy="163.66" r="10.37"></circle><circle class="b" cx="109.72" cy="23.24" r="10.37"></circle></svg>